<?xml version="1.0" encoding="UTF-8"?>
<svg id="Ebene_1" data-name="Ebene 1" xmlns="http://www.w3.org/2000/svg" viewBox="0 0 390.47 359.82">
  <defs>
    <style>
      .cls-1 {
        fill: #9a4e99;
      }

      .cls-2 {
        fill: #3b6297;
      }
    </style>
  </defs>
  <g id="Ebene_2" data-name="Ebene 2">
    <path class="cls-2" d="M.63,7.55l192.29,349.63c1.36,2.47,4.46,3.36,6.93,2,.84-.46,1.54-1.16,2-2l65.91-119.67c.85-1.53.85-3.4,0-4.93L140.56,2.85c-.9-1.61-2.6-2.62-4.45-2.62L5.11,0C2.29,0,0,2.28,0,5.09c0,.86.21,1.7.63,2.46Z"/>
    <path class="cls-1" d="M227.07,7.57l77.85,140.24c1.35,2.47,4.44,3.37,6.91,2.02.85-.47,1.55-1.17,2.02-2.02L389.85,7.81c1.34-2.47.43-5.56-2.04-6.9-.75-.4-1.58-.62-2.43-.62L231.57.02c-2.81-.02-5.11,2.23-5.13,5.05,0,.88.21,1.74.63,2.5Z"/>
  </g>
</svg>
